{
    "asset" : {
        "generator" : "Khronos glTF Blender I/O v1.6.16",
        "version" : "2.0"
    },
    "scene" : 0,
    "scenes" : [
        {
            "name" : "Scene",
            "nodes" : [
                4
            ]
        }
    ],
    "nodes" : [
        {
            "name" : "Bone.002",
            "translation" : [
                0,
                1,
                0
            ]
        },
        {
            "children" : [
                0
            ],
            "name" : "Bone2",
            "translation" : [
                0,
                1,
                0
            ]
        },
        {
            "children" : [
                1
            ],
            "name" : "Bone1"
        },
        {
            "mesh" : 0,
            "name" : "Box",
            "skin" : 0
        },
        {
            "children" : [
                3,
                2
            ],
            "name" : "\u30a2\u30fc\u30de\u30c1\u30e5\u30a2",
            "scale" : [
                1,
                2,
                1
            ]
        }
    ],
    "materials" : [
        {
            "doubleSided" : true,
            "name" : "\u30de\u30c6\u30ea\u30a2\u30eb.003",
            "pbrMetallicRoughness" : {
                "baseColorFactor" : [
                    0.8000000715255737,
                    0.28096818923950195,
                    0.7072210311889648,
                    1
                ],
                "metallicFactor" : 0,
                "roughnessFactor" : 1
            }
        }
    ],
    "meshes" : [
        {
            "name" : "BoxMesh",
            "primitives" : [
                {
                    "attributes" : {
                        "POSITION" : 0,
                        "NORMAL" : 1,
                        "TEXCOORD_0" : 2,
                        "JOINTS_0" : 3,
                        "WEIGHTS_0" : 4
                    },
                    "indices" : 5,
                    "material" : 0
                }
            ]
        }
    ],
    "skins" : [
        {
            "inverseBindMatrices" : 6,
            "joints" : [
                2,
                1,
                0
            ],
            "name" : "\u30a2\u30fc\u30de\u30c1\u30e5\u30a2"
        }
    ],
    "accessors" : [
        {
            "bufferView" : 0,
            "componentType" : 5126,
            "count" : 24,
            "max" : [
                1,
                6,
                1
            ],
            "min" : [
                -1,
                0,
                -1
            ],
            "type" : "VEC3"
        },
        {
            "bufferView" : 1,
            "componentType" : 5126,
            "count" : 24,
            "type" : "VEC3"
        },
        {
            "bufferView" : 2,
            "componentType" : 5126,
            "count" : 24,
            "type" : "VEC2"
        },
        {
            "bufferView" : 3,
            "componentType" : 5121,
            "count" : 24,
            "type" : "VEC4"
        },
        {
            "bufferView" : 4,
            "componentType" : 5126,
            "count" : 24,
            "type" : "VEC4"
        },
        {
            "bufferView" : 5,
            "componentType" : 5123,
            "count" : 36,
            "type" : "SCALAR"
        },
        {
            "bufferView" : 6,
            "componentType" : 5126,
            "count" : 3,
            "type" : "MAT4"
        }
    ],
    "bufferViews" : [
        {
            "buffer" : 0,
            "byteLength" : 288,
            "byteOffset" : 0
        },
        {
            "buffer" : 0,
            "byteLength" : 288,
            "byteOffset" : 288
        },
        {
            "buffer" : 0,
            "byteLength" : 192,
            "byteOffset" : 576
        },
        {
            "buffer" : 0,
            "byteLength" : 96,
            "byteOffset" : 768
        },
        {
            "buffer" : 0,
            "byteLength" : 384,
            "byteOffset" : 864
        },
        {
            "buffer" : 0,
            "byteLength" : 72,
            "byteOffset" : 1248
        },
        {
            "buffer" : 0,
            "byteLength" : 192,
            "byteOffset" : 1320
        }
    ],
    "buffers" : [
        {
            "byteLength" : 1512,
            "uri" : "data:application/octet-stream;base64,"
        }
    ]
}
