{
    "asset" : {
        "generator" : "Khronos glTF Blender I/O v1.6.16",
        "version" : "2.0"
    },
    "scene" : 0,
    "scenes" : [
        {
            "name" : "Scene",
            "nodes" : [
                1
            ]
        }
    ],
    "nodes" : [
        {
            "mesh" : 0,
            "name" : "Icing",
            "translation" : [
                -0.0007721154252067208,
                -0.0004196818917989731,
                -0.0008156400872394443
            ]
        },
        {
            "children" : [
                0
            ],
            "mesh" : 1,
            "name" : "Donut",
            "translation" : [
                0.0007721154252067208,
                0.029240069910883904,
                0.0008156400872394443
            ]
        }
    ],
    "materials" : [
        {
            "doubleSided" : true,
            "name" : "\u30de\u30c6\u30ea\u30a2\u30eb",
            "pbrMetallicRoughness" : {
                "baseColorFactor" : [
                    0.8000000715255737,
                    0.24511577188968658,
                    0.48634350299835205,
                    1
                ],
                "metallicFactor" : 0,
                "roughnessFactor" : 0.4000000059604645
            }
        },
        {
            "doubleSided" : true,
            "name" : "\u30de\u30c6\u30ea\u30a2\u30eb.001",
            "pbrMetallicRoughness" : {
                "baseColorFactor" : [
                    0.6798946857452393,
                    0.5215784311294556,
                    0.226414293050766,
                    1
                ],
                "metallicFactor" : 0,
                "roughnessFactor" : 0.5
            }
        }
    ],
    "meshes" : [
        {
            "name" : "\u30c8\u30fc\u30e9\u30b9.002",
            "primitives" : [
                {
                    "attributes" : {
                        "POSITION" : 0,
                        "NORMAL" : 1,
                        "TEXCOORD_0" : 2
                    },
                    "indices" : 3,
                    "material" : 0
                }
            ]
        },
        {
            "name" : "\u30c8\u30fc\u30e9\u30b9.001",
            "primitives" : [
                {
                    "attributes" : {
                        "POSITION" : 4,
                        "NORMAL" : 5,
                        "TEXCOORD_0" : 6
                    },
                    "indices" : 7,
                    "material" : 1
                }
            ]
        }
    ],
    "accessors" : [
        {
            "bufferView" : 0,
            "componentType" : 5126,
            "count" : 679,
            "max" : [
                0.0747259333729744,
                0.03191080689430237,
                0.07420900464057922
            ],
            "min" : [
                -0.07282034307718277,
                -9.441166184842587e-05,
                -0.0717415139079094
            ],
            "type" : "VEC3"
        },
        {
            "bufferView" : 1,
            "componentType" : 5126,
            "count" : 679,
            "type" : "VEC3"
        },
        {
            "bufferView" : 2,
            "componentType" : 5126,
            "count" : 679,
            "type" : "VEC2"
        },
        {
            "bufferView" : 3,
            "componentType" : 5123,
            "count" : 3078,
            "type" : "SCALAR"
        },
        {
            "bufferView" : 4,
            "componentType" : 5126,
            "count" : 1725,
            "max" : [
                0.07492087036371231,
                0.029382331296801567,
                0.07495687156915665
            ],
            "min" : [
                -0.07598945498466492,
                -0.0292400773614645,
                -0.07479299604892731
            ],
            "type" : "VEC3"
        },
        {
            "bufferView" : 5,
            "componentType" : 5126,
            "count" : 1725,
            "type" : "VEC3"
        },
        {
            "bufferView" : 6,
            "componentType" : 5126,
            "count" : 1725,
            "type" : "VEC2"
        },
        {
            "bufferView" : 7,
            "componentType" : 5123,
            "count" : 9216,
            "type" : "SCALAR"
        }
    ],
    "bufferViews" : [
        {
            "buffer" : 0,
            "byteLength" : 8148,
            "byteOffset" : 0
        },
        {
            "buffer" : 0,
            "byteLength" : 8148,
            "byteOffset" : 8148
        },
        {
            "buffer" : 0,
            "byteLength" : 5432,
            "byteOffset" : 16296
        },
        {
            "buffer" : 0,
            "byteLength" : 6156,
            "byteOffset" : 21728
        },
        {
            "buffer" : 0,
            "byteLength" : 20700,
            "byteOffset" : 27884
        },
        {
            "buffer" : 0,
            "byteLength" : 20700,
            "byteOffset" : 48584
        },
        {
            "buffer" : 0,
            "byteLength" : 13800,
            "byteOffset" : 69284
        },
        {
            "buffer" : 0,
            "byteLength" : 18432,
            "byteOffset" : 83084
        }
    ],
    "buffers" : [
        {
            "byteLength" : 101516,
            "uri" : "data:application/octet-stream;base64,"
        }
    ]
}
